<?xml version="1.0" encoding="utf-8"?>
<!-- Generator: Adobe Illustrator 25.2.3, SVG Export Plug-In . SVG Version: 6.00 Build 0)  -->
<svg version="1.1" id="Layer_1" xmlns="http://www.w3.org/2000/svg" xmlns:xlink="http://www.w3.org/1999/xlink" x="0px" y="0px"
	 viewBox="0 0 1440 320" style="enable-background:new 0 0 1440 320;" xml:space="preserve">
<style type="text/css">
	.st0{fill:#6482FF;}
</style>
<path class="st0" d="M1440,8.9l-40,5.9c-40,6-120,17.7-200,29.7s-160,23.7-240,25.3c-80,1.5-160-7.4-240-16.4S560,35.7,480,29.7
	s-160-8.8-240-7.4S80,29.8,40,32.7l-40,3V0h40c40,0,120,0,200,0s160,0,240,0s160,0,240,0s160,0,240,0s160,0,240,0s160,0,200,0h40
	V8.9z"/>
</svg>
